/* XPM */
static char * tall_16_xpm[] = {
"16 16 2 1",
" 	c None",
".  c #55AA55",
"                ",
" ....... ...... ",
" .     . .    . ",
" .     . .    . ",
" .     . .    . ",
" .     . .    . ",
" .     . ...... ",
" .     .        ",
" .     .        ",
" .     . ...... ",
" .     . .    . ",
" .     . .    . ",
" .     . .    . ",
" .     . .    . ",
" ....... ...... ",
"                "};
