/* XPM */
static char * tall_xpm[] = {
"128 128 2 1",
" 	c None",
".	c #FFFFFF",
"                                                                                                                                ",
"        ...................................................                .............................................        ",
"      .......................................................            .................................................      ",
"    ......                                               ......        ......                                         ......    ",
"   .....                                                   .....      .....                                             .....   ",
"   ...                                                       ...      ...                                                 ...   ",
"  ...                                                         ...    ...                                                   ...  ",
"  ...                                                         ...    ...                                                   ...  ",
" ...                                                           ...  ...                                                     ... ",
" ...                                                           ...  ...                                                     ... ",
" ..                                                             ..  ..                                                       .. ",
" ..                                                             ..  ..                                                       .. ",
" ..                                                             ..  ..                                                       .. ",
" ..                                                             ..  ..                                                       .. ",
" ..                                                             ..  ..                                                       .. ",
" ..                                                             ..  ..                                                       .. ",
" ..                                                             ..  ..                                                       .. ",
" ..                                                             ..  ..                                                       .. ",
" ..                                                             ..  ..                                                       .. ",
" ..                                                             ..  ..                                                       .. ",
" ..                                                             ..  ..                                                       .. ",
" ..                                                             ..  ..                                                       .. ",
" ..                                                             ..  ..                                                       .. ",
" ..                                                             ..  ..                                                       .. ",
" ..                                                             ..  ..                                                       .. ",
" ..                                                             ..  ..                                                       .. ",
" ..                                                             ..  ..                                                       .. ",
" ..                                                             ..  ..                                                       .. ",
" ..                                                             ..  ..                                                       .. ",
" ..                                                             ..  ..                                                       .. ",
" ..                                                             ..  ..                                                       .. ",
" ..                                                             ..  ..                                                       .. ",
" ..                                                             ..  ..                                                       .. ",
" ..                                                             ..  ..                                                       .. ",
" ..                                                             ..  ..                                                       .. ",
" ..                                                             ..  ..                                                       .. ",
" ..                                                             ..  ..                                                       .. ",
" ..                                                             ..  ..                                                       .. ",
" ..                                                             ..  ..                                                       .. ",
" ..                                                             ..  ..                                                       .. ",
" ..                                                             ..  ..                                                       .. ",
" ..                                                             ..  ..                                                       .. ",
" ..                                                             ..  ..                                                       .. ",
" ..                                                             ..  ..                                                       .. ",
" ..                                                             ..  ..                                                       .. ",
" ..                                                             ..  ..                                                       .. ",
" ..                                                             ..  ..                                                       .. ",
" ..                                                             ..  ..                                                       .. ",
" ..                                                             ..  ..                                                       .. ",
" ..                                                             ..  ..                                                       .. ",
" ..                                                             ..  ..                                                       .. ",
" ..                                                             ..  ..                                                       .. ",
" ..                                                             ..  ..                                                       .. ",
" ..                                                             ..  ..                                                       .. ",
" ..                                                             ..  ..                                                       .. ",
" ..                                                             ..  ..                                                       .. ",
" ..                                                             ..  ...                                                     ... ",
" ..                                                             ..  ...                                                     ... ",
" ..                                                             ..   ...                                                   ...  ",
" ..                                                             ..   ...                                                   ...  ",
" ..                                                             ..    ...                                                 ...   ",
" ..                                                             ..    .....                                             .....   ",
" ..                                                             ..     ......                                         ......    ",
" ..                                                             ..       .................................................      ",
" ..                                                             ..         .............................................        ",
" ..                                                             ..                                                              ",
" ..                                                             ..         .............................................        ",
" ..                                                             ..       .................................................      ",
" ..                                                             ..     ......                                         ......    ",
" ..                                                             ..    .....                                             .....   ",
" ..                                                             ..    ...                                                 ...   ",
" ..                                                             ..   ...                                                   ...  ",
" ..                                                             ..   ...                                                   ...  ",
" ..                                                             ..  ...                                                     ... ",
" ..                                                             ..  ...                                                     ... ",
" ..                                                             ..  ..                                                       .. ",
" ..                                                             ..  ..                                                       .. ",
" ..                                                             ..  ..                                                       .. ",
" ..                                                             ..  ..                                                       .. ",
" ..                                                             ..  ..                                                       .. ",
" ..                                                             ..  ..                                                       .. ",
" ..                                                             ..  ..                                                       .. ",
" ..                                                             ..  ..                                                       .. ",
" ..                                                             ..  ..                                                       .. ",
" ..                                                             ..  ..                                                       .. ",
" ..                                                             ..  ..                                                       .. ",
" ..                                                             ..  ..                                                       .. ",
" ..                                                             ..  ..                                                       .. ",
" ..                                                             ..  ..                                                       .. ",
" ..                                                             ..  ..                                                       .. ",
" ..                                                             ..  ..                                                       .. ",
" ..                                                             ..  ..                                                       .. ",
" ..                                                             ..  ..                                                       .. ",
" ..                                                             ..  ..                                                       .. ",
" ..                                                             ..  ..                                                       .. ",
" ..                                                             ..  ..                                                       .. ",
" ..                                                             ..  ..                                                       .. ",
" ..                                                             ..  ..                                                       .. ",
" ..                                                             ..  ..                                                       .. ",
" ..                                                             ..  ..                                                       .. ",
" ..                                                             ..  ..                                                       .. ",
" ..                                                             ..  ..                                                       .. ",
" ..                                                             ..  ..                                                       .. ",
" ..                                                             ..  ..                                                       .. ",
" ..                                                             ..  ..                                                       .. ",
" ..                                                             ..  ..                                                       .. ",
" ..                                                             ..  ..                                                       .. ",
" ..                                                             ..  ..                                                       .. ",
" ..                                                             ..  ..                                                       .. ",
" ..                                                             ..  ..                                                       .. ",
" ..                                                             ..  ..                                                       .. ",
" ..                                                             ..  ..                                                       .. ",
" ..                                                             ..  ..                                                       .. ",
" ..                                                             ..  ..                                                       .. ",
" ..                                                             ..  ..                                                       .. ",
" ..                                                             ..  ..                                                       .. ",
" ..                                                             ..  ..                                                       .. ",
" ..                                                             ..  ..                                                       .. ",
" ...                                                           ...  ..                                                       .. ",
" ...                                                           ...  ...                                                     ... ",
"  ...                                                         ...   ...                                                     ... ",
"  ...                                                         ...    ...                                                   ...  ",
"   ...                                                       ...     ...                                                   ...  ",
"   .....                                                   .....      ...                                                 ...   ",
"    ......                                               ......       .....                                             .....   ",
"      .......................................................          ......                                         ......    ",
"        ...................................................              .................................................      ",
"                                                                           .............................................        "};
